<svg width="256" height="256" viewBox="0 0 256 256" fill="none" xmlns="http://www.w3.org/2000/svg">
<circle cx="128" cy="128" r="127" fill="white" stroke="url(#paint0_linear_744_9427)" stroke-width="2"/>
<path d="M134 115.688C133.292 116.979 132.354 118.688 131.188 120.812C130.062 122.938 128.75 125.312 127.25 127.938C125.792 130.562 124.188 133.396 122.438 136.438C120.729 139.438 118.938 142.458 117.062 145.5C115.229 148.542 113.333 151.542 111.375 154.5C109.458 157.417 107.583 160.125 105.75 162.625C110.25 162.167 114.583 161.021 118.75 159.188C122.917 157.354 126.812 155.083 130.438 152.375C134.104 149.625 137.438 146.562 140.438 143.188C143.479 139.771 146.062 136.25 148.188 132.625C150.354 128.958 152.021 125.292 153.188 121.625C154.396 117.958 155 114.5 155 111.25C155 108.5 154.646 105.958 153.938 103.625C153.271 101.292 152.229 99.2708 150.812 97.5625C149.438 95.8542 147.667 94.5208 145.5 93.5625C143.333 92.6042 140.792 92.125 137.875 92.125C135.167 92.125 132.438 92.3958 129.688 92.9375C126.979 93.4375 124.375 94.125 121.875 95C119.375 95.875 117.062 96.9167 114.938 98.125C112.854 99.2917 111.062 100.562 109.562 101.938C107.896 103.771 106.417 105.604 105.125 107.438C103.875 109.271 102.625 110.917 101.375 112.375C100.167 113.833 98.8542 115.021 97.4375 115.938C96.0208 116.854 94.3542 117.312 92.4375 117.312C88.8542 117.312 87.0625 115.729 87.0625 112.562C87.0625 110.562 87.7083 108.417 89 106.125C90.2917 103.792 92.0833 101.5 94.375 99.25C96.7083 96.9583 99.4583 94.7708 102.625 92.6875C105.833 90.5625 109.354 88.7083 113.188 87.125C117.021 85.5 121.104 84.2083 125.438 83.25C129.771 82.2917 134.229 81.8125 138.812 81.8125C144.146 81.8125 148.792 82.6042 152.75 84.1875C156.708 85.7708 159.979 87.9583 162.562 90.75C165.188 93.5 167.125 96.75 168.375 100.5C169.667 104.25 170.312 108.292 170.312 112.625C170.312 116.958 169.562 121.5 168.062 126.25C166.604 131 164.438 135.667 161.562 140.25C158.729 144.833 155.208 149.188 151 153.312C146.833 157.438 142.021 161.062 136.562 164.188C131.146 167.312 125.125 169.792 118.5 171.625C111.917 173.458 104.792 174.375 97.125 174.375C95.4583 174.375 94.1458 173.833 93.1875 172.75C92.2292 171.708 91.75 170.417 91.75 168.875C91.75 167.667 91.9583 166.5 92.375 165.375C92.7917 164.25 93.3333 163.208 94 162.25L119.688 111.188C120.896 109.312 122.083 107.812 123.25 106.688C124.458 105.562 125.562 104.688 126.562 104.062C127.604 103.438 128.521 103.042 129.312 102.875C130.104 102.667 130.708 102.562 131.125 102.562C133 102.562 134.333 103.104 135.125 104.188C135.917 105.271 136.312 106.562 136.312 108.062C136.312 109.271 136.104 110.542 135.688 111.875C135.271 113.208 134.708 114.479 134 115.688Z" fill="url(#paint1_linear_744_9427)"/>
<defs>
<linearGradient id="paint0_linear_744_9427" x1="0" y1="0" x2="264.073" y2="8.6174" gradientUnits="userSpaceOnUse">
<stop stop-color="#A814AB"/>
<stop offset="1" stop-color="#0029FF"/>
</linearGradient>
<linearGradient id="paint1_linear_744_9427" x1="76" y1="67" x2="183.334" y2="69.5297" gradientUnits="userSpaceOnUse">
<stop stop-color="#A814AB"/>
<stop offset="1" stop-color="#0029FF"/>
</linearGradient>
</defs>
</svg>
