<svg width="72" height="72" viewBox="0 0 72 72" fill="none" xmlns="http://www.w3.org/2000/svg">
<g filter="url(#filter0_d_953_11906)">
<circle cx="36" cy="32" r="30.5" fill="white" stroke="#06080F" stroke-width="3"/>
<path d="M39.0254 28.1621C38.8262 28.5254 38.5625 29.0059 38.2344 29.6035C37.918 30.2012 37.5488 30.8691 37.127 31.6074C36.7168 32.3457 36.2656 33.1426 35.7734 33.998C35.293 34.8418 34.7891 35.6914 34.2617 36.5469C33.7461 37.4023 33.2129 38.2461 32.6621 39.0781C32.123 39.8984 31.5957 40.6602 31.0801 41.3633C32.3457 41.2344 33.5645 40.9121 34.7363 40.3965C35.9082 39.8809 37.0039 39.2422 38.0234 38.4805C39.0547 37.707 39.9922 36.8457 40.8359 35.8965C41.6914 34.9355 42.418 33.9453 43.0156 32.9258C43.625 31.8945 44.0938 30.8633 44.4219 29.832C44.7617 28.8008 44.9316 27.8281 44.9316 26.9141C44.9316 26.1406 44.832 25.4258 44.6328 24.7695C44.4453 24.1133 44.1523 23.5449 43.7539 23.0645C43.3672 22.584 42.8691 22.209 42.2598 21.9395C41.6504 21.6699 40.9355 21.5352 40.1152 21.5352C39.3535 21.5352 38.5859 21.6113 37.8125 21.7637C37.0508 21.9043 36.3184 22.0977 35.6152 22.3438C34.9121 22.5898 34.2617 22.8828 33.6641 23.2227C33.0781 23.5508 32.5742 23.9082 32.1523 24.2949C31.6836 24.8105 31.2676 25.3262 30.9043 25.8418C30.5527 26.3574 30.2012 26.8203 29.8496 27.2305C29.5098 27.6406 29.1406 27.9746 28.7422 28.2324C28.3438 28.4902 27.875 28.6191 27.3359 28.6191C26.3281 28.6191 25.8242 28.1738 25.8242 27.2832C25.8242 26.7207 26.0059 26.1172 26.3691 25.4727C26.7324 24.8164 27.2363 24.1719 27.8809 23.5391C28.5371 22.8945 29.3105 22.2793 30.2012 21.6934C31.1035 21.0957 32.0938 20.5742 33.1719 20.1289C34.25 19.6719 35.3984 19.3086 36.6172 19.0391C37.8359 18.7695 39.0898 18.6348 40.3789 18.6348C41.8789 18.6348 43.1855 18.8574 44.2988 19.3027C45.4121 19.748 46.332 20.3633 47.0586 21.1484C47.7969 21.9219 48.3418 22.8359 48.6934 23.8906C49.0566 24.9453 49.2383 26.082 49.2383 27.3008C49.2383 28.5195 49.0273 29.7969 48.6055 31.1328C48.1953 32.4688 47.5859 33.7812 46.7773 35.0703C45.9805 36.3594 44.9902 37.584 43.8066 38.7441C42.6348 39.9043 41.2812 40.9238 39.7461 41.8027C38.2227 42.6816 36.5293 43.3789 34.666 43.8945C32.8145 44.4102 30.8105 44.668 28.6543 44.668C28.1855 44.668 27.8164 44.5156 27.5469 44.2109C27.2773 43.918 27.1426 43.5547 27.1426 43.1211C27.1426 42.7812 27.2012 42.4531 27.3184 42.1367C27.4355 41.8203 27.5879 41.5273 27.7754 41.2578L35 26.8965C35.3398 26.3691 35.6738 25.9473 36.002 25.6309C36.3418 25.3145 36.6523 25.0684 36.9336 24.8926C37.2266 24.7168 37.4844 24.6055 37.707 24.5586C37.9297 24.5 38.0996 24.4707 38.2168 24.4707C38.7441 24.4707 39.1191 24.623 39.3418 24.9277C39.5645 25.2324 39.6758 25.5957 39.6758 26.0176C39.6758 26.3574 39.6172 26.7148 39.5 27.0898C39.3828 27.4648 39.2246 27.8223 39.0254 28.1621Z" fill="#06080F"/>
</g>
<defs>
<filter id="filter0_d_953_11906" x="0" y="0" width="72" height="72" filterUnits="userSpaceOnUse" color-interpolation-filters="sRGB">
<feFlood flood-opacity="0" result="BackgroundImageFix"/>
<feColorMatrix in="SourceAlpha" type="matrix" values="0 0 0 0 0 0 0 0 0 0 0 0 0 0 0 0 0 0 127 0" result="hardAlpha"/>
<feOffset dy="4"/>
<feGaussianBlur stdDeviation="2"/>
<feComposite in2="hardAlpha" operator="out"/>
<feColorMatrix type="matrix" values="0 0 0 0 0 0 0 0 0 0 0 0 0 0 0 0 0 0 0.25 0"/>
<feBlend mode="normal" in2="BackgroundImageFix" result="effect1_dropShadow_953_11906"/>
<feBlend mode="normal" in="SourceGraphic" in2="effect1_dropShadow_953_11906" result="shape"/>
</filter>
</defs>
</svg>
